<?xml version="1.0" encoding="utf-8"?>
<svg xmlns="http://www.w3.org/2000/svg" viewBox="47.64 87.1151 111.315 140.7142" width="111.315px" height="140.714px" preserveAspectRatio="none"><path class="st0" d="M 126.235 150.775 C 98.867 139.26 64.266 132.85 64.266 112.709 C 64.266 109.479 65.083 106.54 66.483 103.937 C 74.096 89.869 99.539 84.377 117.945 92.617 C 128.592 97.387 136.883 106.831 137.896 121.867 L 155.149 121.867 C 154.376 108.516 145.75 99.072 133.804 93.384 C 108.115 81.192 67.059 86.784 56.266 110.156 C 54.531 113.867 53.568 118.01 53.568 122.639 C 53.568 144.421 83.109 152.952 109.178 162.637 C 106.721 164.372 104.314 166.057 101.951 167.697 C 91.203 174.734 78.098 182.778 64.848 184.127 L 64.848 184.077 L 47.64 184.077 C 53.568 242.195 158.955 242.195 158.955 185.376 C 158.955 168.604 144.983 158.869 127.73 151.402 M 148.258 195.351 C 148.258 234.671 71.879 242.284 64.988 185.325 C 78.434 184.026 93.055 177.802 102.674 168.99 C 130.067 143.895 108.165 165.234 110.863 163.303 C 130.814 170.871 148.258 179.352 148.258 195.351 Z" style="fill: rgb(29, 29, 27);" id="object-0"/></svg>