<?xml version="1.0" encoding="utf-8"?>
<svg xmlns="http://www.w3.org/2000/svg" viewBox="47.64 77.124 341.3544 150.7053" width="341.354px" height="150.705px" preserveAspectRatio="none"><g id="object-3"><path class="st0" d="M 190.282 222.389 L 190.282 132.178 L 184.835 132.178 C 182.041 131.506 179.002 131.07 175.727 130.924 C 174.809 130.874 173.896 130.874 172.933 130.924 C 164.934 128.226 162.047 121.24 162.047 114.203 C 162.047 109.238 163.008 104.278 167.056 100.852 C 170.19 98.249 174.523 96.514 180.116 96.418 C 177.177 97.818 175.15 100.662 174.814 104.082 C 174.764 104.373 174.764 104.709 174.764 105.045 C 174.764 110.397 178.957 114.584 184.353 114.584 C 186.38 114.584 188.305 113.906 189.895 112.798 L 189.946 112.798 C 192.308 111.063 193.898 108.269 193.898 105.039 C 193.898 104.748 193.898 104.508 193.847 104.222 C 193.512 99.884 190.332 96.514 186.279 95.646 L 186.229 95.646 C 185.602 95.5 184.975 95.456 184.348 95.456 C 183.771 95.456 183.189 95.456 182.612 95.646 L 182.612 95.456 L 180.687 95.456 C 174.372 95.456 169.507 97.432 166.087 100.516 C 162.04 104.032 160.013 109.143 160.013 114.203 C 160.013 120.949 163.529 127.694 170.521 131.019 C 151.692 132.858 136.696 139.744 126.235 150.775 C 98.867 139.26 64.266 132.85 64.266 112.709 C 64.266 109.479 65.083 106.54 66.483 103.937 C 74.096 89.869 99.539 84.377 117.945 92.617 C 128.592 97.387 136.883 106.831 137.896 121.867 L 155.149 121.867 C 154.376 108.516 145.75 99.072 133.804 93.384 C 108.115 81.192 67.059 86.784 56.266 110.156 C 54.531 113.867 53.568 118.01 53.568 122.639 C 53.568 144.421 83.109 152.952 109.178 162.637 C 106.721 164.372 104.314 166.057 101.951 167.697 C 91.203 174.734 78.098 182.778 64.848 184.127 L 64.848 184.077 L 47.64 184.077 C 53.568 242.195 158.955 242.195 158.955 185.376 C 158.955 168.604 144.983 158.869 127.73 151.402 C 143.298 141.04 158.765 132.268 174.283 132.369 C 174.473 132.464 174.714 132.514 174.96 132.559 L 174.96 226.862 L 161.564 226.862 L 161.564 227.825 L 203.683 227.825 L 203.683 226.862 L 190.287 226.862 L 190.287 222.378 L 190.282 222.389 Z M 148.258 195.351 C 148.258 234.671 71.879 242.284 64.988 185.325 C 78.434 184.026 93.055 177.802 102.674 168.99 C 130.067 143.895 108.165 165.234 110.863 163.303 C 130.814 170.871 148.258 179.352 148.258 195.351 Z" style="fill: rgb(29, 29, 27);" id="object-0"/><path class="st0" d="M 388.758 184.165 C 387.679 210.036 369.863 223.799 352.216 225.323 C 334.569 226.847 328.123 213.479 328.123 203.24 C 328.123 169.913 388.957 175.534 388.957 149.233 C 388.957 131.766 365.463 122.731 347.398 122.731 C 313.641 122.731 295.752 150.807 297.069 177.726 C 290.941 174.688 288.082 168.667 281.706 168.667 C 280.216 168.667 278.953 169.199 278.001 170.066 C 276.757 171.198 276.042 172.902 276.042 174.736 C 276.042 176.961 277.258 179.036 279.074 181.256 C 280.689 183.482 282.916 185.909 285.196 188.587 C 289.649 194.051 293.944 200.779 293.944 210.131 C 293.944 229.654 268.704 230.864 268.704 207.652 L 268.704 77.124 L 238.208 77.124 L 238.208 78.135 L 252.42 78.135 L 252.42 202.188 C 252.42 207.599 253.682 212.152 255.757 215.841 C 255.757 215.841 255.763 215.854 255.768 215.86 C 251.409 229.647 231.399 228.326 231.399 207.652 L 231.399 77.124 L 200.903 77.124 L 200.903 77.836 C 204.493 77.635 208.134 77.736 211.825 78.14 L 215.161 78.14 L 215.161 202.195 C 215.161 230.611 249.682 235.217 256.473 216.928 C 266.948 233.548 294.948 231.069 294.948 210.138 C 294.948 200.378 292.944 195.409 285.994 187.936 C 283.647 185.412 281.494 182.878 279.873 180.652 C 278.052 178.425 277.041 176.557 277.041 174.736 C 277.041 171.904 278.863 169.677 281.694 169.677 C 286.823 169.677 290.513 175.934 297.128 178.906 C 298.831 203.269 316.362 226.328 352.205 226.328 C 351.711 226.328 351.217 226.317 350.736 226.293 C 351.217 226.317 351.705 226.328 352.205 226.328 C 369.47 226.328 390.43 211.127 388.917 184.221 L 388.745 184.165 L 388.758 184.165 Z M 347.398 123.73 C 362.056 123.73 372.696 132.16 372.696 147.423 C 372.696 177.537 327.119 173.325 327.119 203.24 C 327.119 213.527 334.815 225.5 350.56 226.287 C 302.556 224.031 306.703 123.735 347.398 123.735 L 347.398 123.73 Z" style="fill: rgb(29, 29, 27);" id="object-1"/><path class="st0" d="M 385.594 79.347 L 373.134 78.443 C 374.403 98.999 365.225 109.384 355.419 113.797 L 355.352 113.781 C 370.088 112.046 384.273 103.779 385.599 79.355 L 385.594 79.347 Z" style="fill: rgb(29, 29, 27);" id="object-2"/></g></svg>